# xmcd CD database file
#
# Track frame offsets:
#	150
#	18237
#	30967
#	46983
#	60012
#	72761
#	87130
#	105225
#	118985
#
# Disc length: 1831 seconds
#
# Revision: 0
# Processed by: cddbd v1.5.2PL0 Copyright (c) Steve Scherf et al.
# Submitted via: CDex 1.51
#
DISCID=5d072509
DTITLE=Geoffrey Fletcher  - Old Mate
DYEAR=2007
DGENRE=Country
TTITLE0=Old Mate
TTITLE1=Square Dance At Halls Creek
TTITLE2=Travelling Home
TTITLE3=Teenage Country Style
TTITLE4=If I Could Live My Life Again
TTITLE5=I See An Angel
TTITLE6=Yakka Munga Man
TTITLE7=I Heard The Bluebird Song
TTITLE8=Tapping On My Spoons
EXTD=YEAR: 2007
EXTT0=
EXTT1=
EXTT2=
EXTT3=
EXTT4=
EXTT5=
EXTT6=
EXTT7=
EXTT8=
PLAYORDER=
